<svg width="974" height="1355" viewBox="0 0 974 1355" fill="none" xmlns="http://www.w3.org/2000/svg">
<mask id="path-1-outside-1_3_273" maskUnits="userSpaceOnUse" x="0" y="-189.076" width="974" height="1545" fill="black">
<rect fill="white" y="-189.076" width="974" height="1545"/>
<path fill-rule="evenodd" clip-rule="evenodd" d="M709.586 436.98C788.409 372.48 838.718 274.436 838.718 164.641C838.718 -29.607 681.248 -187.076 487 -187.076C292.752 -187.076 135.282 -29.607 135.282 164.641C135.282 274.436 185.591 372.48 264.414 436.98C108.536 517.641 2 680.379 2 868C2 1135.86 219.142 1353 487 1353C754.858 1353 972 1135.86 972 868C972 680.379 865.464 517.641 709.586 436.98Z"/>
</mask>
<path d="M709.586 436.98L708.319 435.432L705.965 437.358L708.667 438.756L709.586 436.98ZM264.414 436.98L265.333 438.756L268.035 437.358L265.681 435.432L264.414 436.98ZM836.718 164.641C836.718 273.811 786.698 371.296 708.319 435.432L710.852 438.528C790.12 373.664 840.718 275.061 840.718 164.641H836.718ZM487 -185.076C680.144 -185.076 836.718 -28.5025 836.718 164.641H840.718C840.718 -30.7116 682.353 -189.076 487 -189.076V-185.076ZM137.282 164.641C137.282 -28.5025 293.856 -185.076 487 -185.076V-189.076C291.647 -189.076 133.282 -30.7116 133.282 164.641H137.282ZM265.681 435.432C187.302 371.296 137.282 273.811 137.282 164.641H133.282C133.282 275.061 183.88 373.664 263.148 438.528L265.681 435.432ZM4 868C4 681.156 110.093 519.087 265.333 438.756L263.495 435.203C106.979 516.195 0 679.603 0 868H4ZM487 1351C220.246 1351 4 1134.75 4 868H0C0 1136.96 218.037 1355 487 1355V1351ZM970 868C970 1134.75 753.754 1351 487 1351V1355C755.963 1355 974 1136.96 974 868H970ZM708.667 438.756C863.907 519.087 970 681.156 970 868H974C974 679.603 867.021 516.195 710.505 435.203L708.667 438.756Z" fill="#EBDFCB" mask="url(#path-1-outside-1_3_273)"/>
</svg>
