<svg width="318" height="28" viewBox="0 0 318 28" fill="none" xmlns="http://www.w3.org/2000/svg">
<g clip-path="url(#clip0_3_184)">
<path d="M62.1377 7.05981C61.5528 7.05981 61.0767 6.88693 60.7049 6.54116C60.3331 6.19539 60.146 5.7691 60.146 5.26703C60.146 4.74838 60.3331 4.32683 60.7049 3.99764C61.0767 3.66845 61.5551 3.50504 62.1377 3.50504C62.7274 3.50504 63.2082 3.66845 63.5753 3.99764C63.9424 4.32683 64.1271 4.74838 64.1271 5.26703C64.1271 5.79279 63.9424 6.22381 63.5753 6.55774C63.2082 6.89166 62.7274 7.05981 62.1377 7.05981ZM64.0063 23.0409H60.4847C60.1484 23.0409 59.876 22.7685 59.876 22.4322V8.29131C59.876 7.95501 60.1484 7.68266 60.4847 7.68266H64.0063C64.3426 7.68266 64.6149 7.95501 64.6149 8.29131V22.4322C64.6149 22.7685 64.3426 23.0409 64.0063 23.0409Z" fill="#5D503C"/>
<path d="M81.0436 23.2279H77.702C77.3373 23.2279 77.0389 22.9319 77.0389 22.5648V14.6951C77.0389 12.5684 76.3592 11.3913 74.9998 11.1664C73.9862 10.9982 72.9205 11.4245 72.3189 12.2581C71.8856 12.8573 71.67 13.5962 71.67 14.4725V22.5246C71.67 22.9153 71.3527 23.2327 70.9619 23.2327H67.6866C67.2674 23.2327 66.9288 22.894 66.9288 22.4748V8.4239C66.9288 8.1184 67.1774 7.86973 67.483 7.86973H71.2366C71.4758 7.86973 71.6677 8.06393 71.6677 8.30075V8.98992C71.6677 9.04439 71.7221 9.07991 71.7695 9.05386C72.2976 8.7673 74.7441 7.49318 76.66 7.49318C80.0608 7.49318 81.7589 9.6033 81.7589 13.8235V22.5056C81.766 22.9058 81.4415 23.2279 81.0436 23.2279ZM142.562 22.8182H139.22C138.855 22.8182 138.557 22.5222 138.557 22.1551V14.283C138.557 12.1563 137.877 10.9793 136.518 10.7543C135.504 10.5861 134.439 11.0124 133.837 11.846C133.404 12.4452 133.188 13.1841 133.188 14.0604V22.1125C133.188 22.5032 132.871 22.8206 132.48 22.8206H129.205C128.785 22.8206 128.447 22.4819 128.447 22.0627V8.01419C128.447 7.70869 128.696 7.46002 129.001 7.46002H132.755C132.994 7.46002 133.186 7.65422 133.186 7.89104V8.58021C133.186 8.63468 133.24 8.6702 133.288 8.64415C133.816 8.35759 136.262 7.08347 138.178 7.08347C141.579 7.08347 143.277 9.19359 143.277 13.4138V22.0959C143.284 22.4961 142.96 22.8182 142.562 22.8182Z" fill="#5D503C"/>
<path d="M84.1887 21.8117V19.4908C84.1887 19.1048 84.596 18.8514 84.9394 19.0266C85.4675 19.2942 85.9956 19.505 86.5214 19.6613C87.2958 19.891 88.03 20.0071 88.7192 20.0071C89.5599 20.0071 90.2206 19.8934 90.7061 19.6613C91.1893 19.4316 91.4332 19.0835 91.4332 18.6146C91.4332 18.3138 91.2911 18.0249 91.0637 17.8283C90.8506 17.6436 90.5806 17.4802 90.2562 17.3381C89.9104 17.1889 89.5338 17.0539 89.1241 16.9331C88.7144 16.8123 88.3189 16.6773 87.94 16.5281C87.329 16.2984 86.7914 16.0497 86.3272 15.7868C85.863 15.5216 85.4723 15.2137 85.1573 14.8632C84.8423 14.5127 84.6031 14.1077 84.4373 13.6483C84.2716 13.1889 84.1887 12.6442 84.1887 12.0142C84.1887 11.1545 84.3758 10.4156 84.7499 9.79513C85.1241 9.17465 85.6262 8.66784 86.2491 8.27234C86.8743 7.87684 87.5895 7.58791 88.3947 7.40319C89.1999 7.21846 90.0359 7.1261 90.9074 7.1261C91.5871 7.1261 92.2763 7.1782 92.9773 7.2824C93.4888 7.36056 93.9956 7.46239 94.4977 7.59028C94.8245 7.67317 95.0472 7.97394 95.0472 8.31023V10.5696C95.0472 10.9414 94.6659 11.1829 94.3272 11.0314C93.9412 10.8585 93.5386 10.7188 93.1194 10.6122C92.435 10.4369 91.7624 10.3493 91.1016 10.3493C90.7914 10.3493 90.5001 10.3777 90.2254 10.4322C89.9507 10.4867 89.7067 10.5672 89.4983 10.6714C89.2875 10.7756 89.1241 10.9106 89.0033 11.0764C88.8826 11.2421 88.8234 11.4292 88.8234 11.6376C88.8234 11.9171 88.9134 12.1587 89.0933 12.3576C89.2733 12.5589 89.5078 12.7294 89.7991 12.8762C90.088 13.0207 90.4125 13.151 90.7677 13.267C91.1229 13.3831 91.4758 13.4991 91.824 13.6199C92.4539 13.8401 93.0247 14.0793 93.5338 14.3398C94.043 14.6003 94.4811 14.9058 94.8459 15.254C95.2106 15.6045 95.49 16.0142 95.6866 16.4831C95.8808 16.9544 95.9779 17.5133 95.9779 18.1622C95.9779 19.0716 95.7813 19.8484 95.3858 20.495C94.9903 21.1391 94.4646 21.6649 93.8109 22.0699C93.1573 22.4748 92.4018 22.7709 91.5469 22.9556C90.6919 23.1403 89.8038 23.2327 88.8849 23.2327C87.4285 23.2327 86.0667 23.0385 84.7949 22.6548C84.4302 22.5388 84.1887 22.1906 84.1887 21.8117Z" fill="#5D503C"/>
<path d="M125.491 16.3008H116.632C116.392 16.3008 116.217 16.5186 116.255 16.7555C116.568 18.6809 117.953 19.6447 120.416 19.6447C121.91 19.6447 123.244 19.3321 124.416 18.7069C124.622 18.598 124.871 18.7353 124.871 18.9674V21.5441C124.871 21.7407 124.764 21.923 124.587 22.0083C123.208 22.6714 121.458 23.0053 119.336 23.0053C116.857 23.0053 114.931 22.3185 113.562 20.9426C112.191 19.569 111.507 17.6507 111.507 15.19C111.507 12.6394 112.245 10.6217 113.726 9.12965C115.206 7.64001 117.025 6.894 119.185 6.894C121.425 6.894 123.156 7.55949 124.383 8.88808C125.607 10.219 126.221 12.0237 126.221 14.3019V15.5642C126.223 15.9739 125.894 16.3008 125.491 16.3008ZM121.02 13.3902C121.47 13.3902 121.835 12.9994 121.778 12.5542C121.569 10.9106 120.695 10.0888 119.156 10.0888C118.396 10.0888 117.737 10.4038 117.183 11.0337C116.788 11.4813 116.504 12.0071 116.328 12.6134C116.217 13.0018 116.523 13.3878 116.928 13.3878H121.02V13.3902Z" fill="#5D503C"/>
<path d="M97.9625 21.7501V19.4292C97.9625 19.0432 98.3699 18.7898 98.7133 18.9651C99.2414 19.2327 99.7695 19.4434 100.295 19.5997C101.07 19.8295 101.804 19.9455 102.493 19.9455C103.334 19.9455 103.995 19.8318 104.48 19.5997C104.963 19.37 105.207 19.0219 105.207 18.553C105.207 18.2522 105.065 17.9633 104.838 17.7667C104.624 17.582 104.354 17.4186 104.03 17.2765C103.684 17.1273 103.308 16.9923 102.898 16.8715C102.488 16.7507 102.093 16.6157 101.714 16.4665C101.103 16.2368 100.565 15.9881 100.101 15.7253C99.6369 15.46 99.2461 15.1521 98.9311 14.8016C98.6162 14.4511 98.377 14.0462 98.2112 13.5867C98.0454 13.1273 97.9625 12.5826 97.9625 11.9526C97.9625 11.0929 98.1496 10.354 98.5238 9.73356C98.898 9.11307 99.4001 8.60626 100.023 8.21076C100.648 7.81526 101.363 7.52633 102.169 7.34161C102.974 7.15688 103.81 7.06452 104.681 7.06452C105.361 7.06452 106.05 7.11662 106.751 7.22083C107.263 7.29898 107.77 7.40082 108.272 7.5287C108.598 7.61159 108.821 7.91236 108.821 8.24865V10.508C108.821 10.8798 108.44 11.1214 108.101 10.9698C107.715 10.7969 107.312 10.6572 106.893 10.5506C106.209 10.3754 105.536 10.2877 104.875 10.2877C104.565 10.2877 104.274 10.3162 103.999 10.3706C103.725 10.4251 103.481 10.5056 103.272 10.6098C103.061 10.714 102.898 10.849 102.777 11.0148C102.656 11.1806 102.597 11.3677 102.597 11.5761C102.597 11.8555 102.687 12.0971 102.867 12.296C103.047 12.4973 103.282 12.6678 103.573 12.8147C103.862 12.9591 104.186 13.0894 104.542 13.2054C104.897 13.3215 105.25 13.4375 105.598 13.5583C106.228 13.7786 106.799 14.0177 107.308 14.2783C107.817 14.5388 108.255 14.8443 108.62 15.1924C108.984 15.5429 109.264 15.9526 109.46 16.4215C109.655 16.8928 109.752 17.4517 109.752 18.1006C109.752 19.0101 109.555 19.7868 109.16 20.4334C108.764 21.0775 108.238 21.6033 107.585 22.0083C106.931 22.4132 106.176 22.7093 105.321 22.894C104.466 23.0787 103.578 23.1711 102.659 23.1711C101.202 23.1711 99.8406 22.9769 98.5688 22.5932C98.2041 22.4796 97.9625 22.1314 97.9625 21.7501Z" fill="#5D503C"/>
<path d="M7.42609 14.0628C9.92461 13.8425 11.3171 6.92244 14.3106 6.82534C17.4083 6.7235 19.2935 13.6246 21.863 13.7644C23.1372 13.8354 25.4723 10.1835 25.4723 10.1835C25.4723 10.1835 26.223 8.95678 26.8956 7.92185C24.6221 3.23268 19.8145 0 14.2538 0C8.78547 0 4.05131 3.12848 1.73041 7.68976C2.65403 8.89283 3.81448 10.4819 3.81448 10.4819C3.81448 10.4819 6.15433 14.1741 7.42609 14.0628Z" fill="#5D503C"/>
<path d="M21.7422 21.4707C19.5231 21.2362 16.8588 14.0793 14.2372 13.9538C11.6226 13.8283 9.56222 21.1154 6.96424 21.4257C5.25672 21.6294 2.10929 18.0178 0.302307 15.7347C1.19277 22.6525 7.09923 28 14.2609 28C21.4391 28 27.3574 22.6264 28.2265 15.685C26.635 17.7383 23.3811 21.6459 21.7422 21.4707Z" fill="#5D503C"/>
<path d="M57.4036 7.6945H56.9038H53.7706H53.7162C53.4485 7.6945 53.2188 7.88396 53.1644 8.14684L51.3076 17.5939C51.3076 17.5939 49.5196 7.7324 45.9056 7.7324C45.9033 7.7324 45.9009 7.7324 45.8985 7.7324C45.8961 7.7324 45.8938 7.7324 45.8914 7.7324C42.2774 7.7324 40.4894 17.5939 40.4894 17.5939L38.6327 8.14684C38.5806 7.88396 38.3509 7.6945 38.0809 7.6945H38.0264H34.8932H34.3935C34.0217 7.6945 33.7517 8.04974 33.8535 8.40972L37.863 22.6193C37.934 22.8727 38.1732 23.0432 38.4385 23.0266L41.818 23.029H42.358C42.6256 23.0124 42.8979 22.6051 42.9334 22.3399C43.0921 21.2031 43.3526 15.0409 44.7333 12.7815C45.072 12.2724 45.4557 11.9621 45.8961 11.9503C46.3343 11.9597 46.7203 12.2724 47.059 12.7815C48.4397 15.0409 48.7002 21.2031 48.8588 22.3399C48.8967 22.6051 49.1691 23.0124 49.4343 23.029H49.9743L53.3538 23.0266C53.6167 23.0432 53.8559 22.8727 53.9293 22.6193L57.9388 8.40972C58.043 8.05211 57.7754 7.6945 57.4036 7.6945Z" fill="#5D503C"/>
</g>
<path d="M177.846 24.6583L175.454 22.4153C174.276 23.3264 173.107 23.9849 171.948 24.391C170.79 24.797 169.468 25 167.982 25C165.655 25 163.734 24.4454 162.218 23.3363C160.703 22.2271 159.946 20.6079 159.946 18.4787C159.946 16.9833 160.376 15.7752 161.238 14.8542C162.11 13.9233 163.293 13.0963 164.788 12.3734C163.986 11.5415 163.402 10.7839 163.035 10.1006C162.679 9.41729 162.501 8.6795 162.501 7.88724C162.501 6.31263 163.105 5.10443 164.313 4.26266C165.521 3.42089 167.071 3 168.963 3C170.785 3 172.265 3.43079 173.404 4.29237C174.553 5.15395 175.127 6.26806 175.127 7.63471C175.127 8.67454 174.835 9.59059 174.251 10.3828C173.667 11.1652 172.488 11.9723 170.715 12.8042L175.722 17.3498C176.444 16.4486 176.93 15.5424 177.177 14.6313C177.425 13.7103 177.549 12.6953 177.549 11.5861H181.708C181.708 13.0914 181.455 14.4927 180.95 15.79C180.455 17.0873 179.594 18.4045 178.366 19.7414L183.788 24.6583H177.846ZM168.457 10.7542C169.289 10.3977 169.913 10.0214 170.329 9.62525C170.755 9.21922 170.968 8.66464 170.968 7.96151C170.968 7.37722 170.765 6.92663 170.359 6.60972C169.953 6.29282 169.487 6.13437 168.963 6.13437C168.299 6.13437 167.759 6.32253 167.343 6.69885C166.927 7.06527 166.719 7.51092 166.719 8.03579C166.719 8.48143 166.858 8.90727 167.135 9.3133C167.413 9.70943 167.853 10.1897 168.457 10.7542ZM172.855 19.9791L167.135 14.6165C166.472 14.9928 165.898 15.4682 165.412 16.0425C164.937 16.607 164.699 17.3547 164.699 18.2856C164.699 19.2462 165.026 20.0137 165.68 20.5881C166.333 21.1625 167.18 21.4497 168.22 21.4497C169.101 21.4497 169.903 21.3408 170.626 21.1229C171.349 20.905 172.092 20.5237 172.855 19.9791Z" fill="#C3B6A2"/>
<g clip-path="url(#clip1_3_184)">
<path d="M217.426 22.8419C215.723 23.1306 213.971 22.8814 212.423 22.1304C210.875 21.3794 209.611 20.1658 208.816 18.6653C208.02 17.1648 207.734 15.4554 207.998 13.785C208.262 12.1145 209.063 10.5696 210.285 9.37442C211.507 8.17917 213.086 7.39557 214.793 7.1372C216.501 6.87884 218.248 7.15913 219.782 7.93744C221.316 8.71575 222.556 9.95165 223.324 11.466C224.092 12.9804 224.346 14.6946 224.051 16.3601C223.776 17.9816 222.989 19.4781 221.801 20.6404C220.613 21.8027 219.083 22.5725 217.426 22.8419ZM217.276 9.04039C216.318 8.8628 215.33 8.90823 214.393 9.17298C213.456 9.43774 212.596 9.91445 211.883 10.5644C211.169 11.2145 210.621 12.0197 210.284 12.9151C209.948 13.8104 209.831 14.7706 209.943 15.7183C210.103 17.0848 210.738 18.3562 211.741 19.3198C212.744 20.2834 214.055 20.8808 215.455 21.012C217.043 21.177 218.635 20.7353 219.898 19.779C221.161 18.8227 221.998 17.4259 222.233 15.8804C222.468 14.3349 222.083 12.7604 221.16 11.4857C220.236 10.2111 218.844 9.33493 217.276 9.04039Z" fill="#5D503C"/>
<path d="M246.91 22.9413C245.863 22.9367 244.828 22.7241 243.867 22.3164C242.907 21.9088 242.041 21.3146 241.322 20.5697C240.604 19.825 240.047 18.9451 239.686 17.9835C239.325 17.022 239.168 15.9987 239.224 14.9758C239.188 12.9349 239.906 10.9499 241.246 9.38544C241.928 8.62892 242.769 8.02523 243.711 7.61558C244.653 7.20593 245.675 6.99998 246.706 7.01177C251.004 7.01177 254.089 10.3265 254.089 14.9758C254.089 15.2251 253.988 15.4642 253.808 15.6404C253.628 15.8167 253.383 15.9156 253.128 15.9156H241.196C241.33 17.3081 241.99 18.6015 243.047 19.5439C244.103 20.4863 245.48 21.0101 246.91 21.0133C247.884 21.0362 248.846 20.7997 249.693 20.3292C250.541 19.8586 251.241 19.1716 251.72 18.3416C251.86 18.1373 252.075 17.9936 252.321 17.9405C252.566 17.8874 252.823 17.9288 253.038 18.0563C253.253 18.1837 253.409 18.3874 253.475 18.6248C253.54 18.8622 253.509 19.1152 253.389 19.3311C252.738 20.4453 251.794 21.3681 250.654 22.0031C249.515 22.6383 248.222 22.9623 246.91 22.9413ZM241.196 14.0374H252.169C252.121 12.6622 251.53 11.3586 250.522 10.3996C249.513 9.44066 248.164 8.90064 246.758 8.89267C245.34 8.91157 243.982 9.45078 242.952 10.4034C241.921 11.3561 241.295 12.6526 241.196 14.0361V14.0374Z" fill="#5D503C"/>
<path d="M264.795 7.95157C264.798 8.07591 264.776 8.19965 264.729 8.31522C264.682 8.43079 264.611 8.53577 264.521 8.62373C264.431 8.71169 264.324 8.78078 264.206 8.82681C264.088 8.87282 263.961 8.89479 263.834 8.89136C263.197 8.90452 262.569 9.04279 261.987 9.29796C261.405 9.55313 260.882 9.92003 260.448 10.3768C260.014 10.8336 259.678 11.371 259.461 11.9572C259.243 12.5433 259.148 13.1663 259.182 13.789V22.0015C259.185 22.1258 259.163 22.2495 259.116 22.3651C259.069 22.4807 258.998 22.5857 258.908 22.6736C258.818 22.7616 258.711 22.8307 258.593 22.8767C258.475 22.9227 258.348 22.9447 258.221 22.9413C258.097 22.9402 257.975 22.9147 257.862 22.8665C257.749 22.8182 257.647 22.7482 257.562 22.6604C257.477 22.5727 257.411 22.4691 257.368 22.3559C257.325 22.2427 257.305 22.1221 257.311 22.0015V7.95157C257.31 7.83453 257.334 7.71855 257.379 7.61032C257.425 7.50209 257.492 7.40376 257.576 7.321C257.661 7.23824 257.761 7.17269 257.872 7.12814C257.983 7.08359 258.101 7.06092 258.221 7.06144C258.344 7.056 258.468 7.07492 258.583 7.11709C258.699 7.15927 258.805 7.22382 258.895 7.3069C258.984 7.38998 259.056 7.48988 259.105 7.60065C259.155 7.71141 259.18 7.83076 259.182 7.95157V8.94104C259.784 8.33269 260.508 7.85197 261.309 7.52864C262.11 7.20532 262.969 7.0463 263.835 7.06144C263.959 7.05617 264.082 7.07524 264.197 7.11749C264.313 7.15974 264.418 7.22433 264.508 7.30739C264.597 7.39045 264.669 7.49029 264.718 7.60097C264.768 7.71164 264.793 7.83087 264.795 7.95157Z" fill="#5D503C"/>
<path d="M289.289 22.8419C287.587 23.1306 285.835 22.8814 284.287 22.1304C282.738 21.3794 281.475 20.1658 280.679 18.6653C279.884 17.1648 279.597 15.4554 279.861 13.785C280.126 12.1145 280.926 10.5696 282.148 9.37442C283.37 8.17917 284.949 7.39557 286.657 7.1372C288.364 6.87884 290.111 7.15913 291.645 7.93744C293.179 8.71575 294.42 9.95165 295.187 11.466C295.955 12.9804 296.21 14.6946 295.915 16.3601C295.625 17.9755 294.833 19.4644 293.648 20.6242C292.462 21.784 290.94 22.5583 289.289 22.8419ZM289.089 9.04039C288.13 8.8628 287.143 8.90823 286.206 9.17298C285.269 9.43774 284.409 9.91445 283.695 10.5644C282.981 11.2145 282.434 12.0197 282.097 12.9151C281.76 13.8104 281.644 14.7706 281.756 15.7183C281.853 16.532 282.117 17.3181 282.534 18.0291C282.95 18.7402 283.508 19.3615 284.176 19.8557C284.844 20.3498 285.608 20.7064 286.42 20.9042C287.233 21.102 288.078 21.1367 288.904 21.0064C289.731 20.8761 290.523 20.5833 291.231 20.1458C291.939 19.7083 292.549 19.1351 293.024 18.4607C293.5 17.7863 293.831 17.0247 293.998 16.2218C294.164 15.4189 294.163 14.5914 293.994 13.7891C293.747 12.6119 293.149 11.5326 292.277 10.6875C291.404 9.84231 290.295 9.26914 289.089 9.04039Z" fill="#5D503C"/>
<path d="M299.235 7.8901V6.49936C299.23 5.78251 299.404 5.07542 299.743 4.43975C300.082 3.80409 300.575 3.25916 301.179 2.85248C301.782 2.44581 302.478 2.18974 303.206 2.1066C303.934 2.02346 304.671 2.11578 305.354 2.3755C305.588 2.46359 305.778 2.63743 305.882 2.86006C305.987 3.08267 305.999 3.33651 305.915 3.56757C305.874 3.68209 305.809 3.78729 305.724 3.87698C305.64 3.96668 305.539 4.03909 305.426 4.08996C305.313 4.14084 305.19 4.16916 305.067 4.17328C304.942 4.17739 304.818 4.15721 304.702 4.11393C304.295 3.9568 303.852 3.91539 303.423 3.9945C302.993 4.0736 302.595 4.26998 302.274 4.56095C301.955 4.85381 301.7 5.20769 301.526 5.6007C301.352 5.9937 301.263 6.41747 301.263 6.84575V7.78946H305.056C305.183 7.78601 305.31 7.8081 305.428 7.85435C305.547 7.90061 305.655 7.97006 305.745 8.05844C305.835 8.14683 305.905 8.25228 305.952 8.36831C305.999 8.48434 306.021 8.60851 306.016 8.73318C306.017 8.85688 305.993 8.97943 305.944 9.09382C305.897 9.20822 305.826 9.31222 305.736 9.39986C305.647 9.48751 305.541 9.5571 305.424 9.60463C305.308 9.65217 305.182 9.67672 305.056 9.67689H301.263V21.8968C301.264 22.0206 301.239 22.1431 301.191 22.2575C301.142 22.3719 301.072 22.4759 300.983 22.5636C300.893 22.6512 300.787 22.7208 300.671 22.7683C300.554 22.8159 300.429 22.8405 300.302 22.8406C300.175 22.844 300.048 22.8219 299.93 22.7757C299.811 22.7294 299.704 22.66 299.614 22.5716C299.523 22.4832 299.453 22.3778 299.406 22.2617C299.359 22.1457 299.338 22.0215 299.342 21.8968V9.77752" fill="#5D503C"/>
<path d="M309.948 6.99478V3.02123C309.947 2.89753 309.972 2.77498 310.02 2.66059C310.069 2.54619 310.139 2.44219 310.228 2.35454C310.318 2.26689 310.423 2.19731 310.54 2.14978C310.657 2.10224 310.782 2.07768 310.909 2.07751C311.036 2.07406 311.163 2.09615 311.281 2.1424C311.4 2.18866 311.507 2.25811 311.597 2.3465C311.687 2.43488 311.758 2.54033 311.805 2.65636C311.851 2.77239 311.874 2.89656 311.869 3.02123V7.89013H315.258C315.518 7.90164 315.764 8.01165 315.943 8.19696C316.123 8.38228 316.221 8.62843 316.218 8.88353C316.223 9.00819 316.2 9.13236 316.154 9.24839C316.107 9.36443 316.036 9.46987 315.946 9.55825C315.856 9.64664 315.749 9.71609 315.63 9.76232C315.512 9.80859 315.385 9.83067 315.258 9.82726H311.869V19.0697C311.865 19.4463 311.966 19.8171 312.162 20.1411C312.358 20.4653 312.642 20.7304 312.982 20.9074C313.376 21.1056 313.828 21.1644 314.261 21.0739C314.694 20.9834 315.082 20.749 315.359 20.4107C315.443 20.3163 315.544 20.2389 315.658 20.1829C315.772 20.1269 315.896 20.0933 316.023 20.0842C316.15 20.0751 316.278 20.0906 316.399 20.1298C316.52 20.169 316.632 20.2312 316.729 20.3127C316.825 20.3942 316.904 20.4936 316.961 20.605C317.018 20.7165 317.053 20.8378 317.062 20.9623C317.072 21.0867 317.056 21.2117 317.016 21.3301C316.976 21.4486 316.912 21.558 316.829 21.6525C316.465 22.068 316.015 22.4027 315.508 22.634C315.001 22.8653 314.448 22.9879 313.889 22.9936C313.376 22.996 312.867 22.8986 312.393 22.7071C311.918 22.5155 311.487 22.2337 311.125 21.8779C310.763 21.522 310.476 21.0993 310.283 20.6343C310.089 20.1693 309.992 19.6711 309.996 19.169V8.88353C309.948 8.23782 309.948 7.59212 309.948 6.99478Z" fill="#5D503C"/>
<path d="M207.349 7.95153C207.353 8.07588 207.33 8.19962 207.283 8.31519C207.236 8.43076 207.166 8.53574 207.076 8.6237C206.986 8.71166 206.879 8.78075 206.76 8.82677C206.642 8.87279 206.516 8.89476 206.389 8.89133C205.752 8.90466 205.124 9.04305 204.542 9.2983C203.961 9.55355 203.437 9.92048 203.004 10.3772C202.57 10.834 202.234 11.3714 202.017 11.9575C201.799 12.5435 201.704 13.1663 201.738 13.789V22.0014C201.741 22.1257 201.719 22.2495 201.672 22.3651C201.625 22.4806 201.554 22.5856 201.464 22.6736C201.374 22.7615 201.267 22.8307 201.149 22.8766C201.031 22.9226 200.904 22.9447 200.777 22.9412C200.654 22.9401 200.532 22.9147 200.418 22.8664C200.305 22.8182 200.203 22.7481 200.118 22.6603C200.033 22.5726 199.967 22.4691 199.924 22.3559C199.881 22.2427 199.862 22.1221 199.867 22.0014V7.95153C199.867 7.8345 199.89 7.71852 199.935 7.61029C199.981 7.50206 200.048 7.40372 200.132 7.32097C200.217 7.23821 200.318 7.17266 200.428 7.12811C200.539 7.08356 200.657 7.06089 200.777 7.06141C200.9 7.05596 201.024 7.07489 201.139 7.11706C201.255 7.15924 201.361 7.22379 201.451 7.30687C201.54 7.38995 201.612 7.48985 201.661 7.60062C201.711 7.71137 201.737 7.83073 201.738 7.95153V8.941C202.34 8.33283 203.064 7.85219 203.864 7.52887C204.665 7.20555 205.524 7.04645 206.39 7.06141C206.637 7.05915 206.875 7.15071 207.054 7.31678C207.233 7.48285 207.339 7.71044 207.349 7.95153Z" fill="#5D503C"/>
<path d="M271.648 22.9413C270.656 22.9994 269.668 22.7728 268.805 22.2894C267.943 21.8059 267.244 21.0867 266.794 20.2199C266.693 19.983 266.689 19.7174 266.783 19.478C266.877 19.2384 267.062 19.0436 267.299 18.9337C267.414 18.8829 267.54 18.8554 267.667 18.8528C267.793 18.8503 267.92 18.8727 268.038 18.9188C268.156 18.9649 268.263 19.0337 268.353 19.1211C268.443 19.2086 268.514 19.3128 268.563 19.4277C268.864 19.9708 269.322 20.4151 269.88 20.7053C270.437 20.9956 271.07 21.1191 271.698 21.0603C272.105 21.1058 272.516 21.0709 272.908 20.9578C273.301 20.8447 273.666 20.6556 273.982 20.4017C274.298 20.1479 274.559 19.8344 274.748 19.4801C274.938 19.1258 275.053 18.7377 275.087 18.339C275.087 16.6071 274.025 16.1627 271.497 15.5692C269.372 15.0255 266.743 14.3824 266.743 11.3644C266.77 10.2597 267.242 9.21047 268.058 8.44563C269.065 7.54928 270.388 7.07077 271.749 7.11109C272.676 7.05725 273.598 7.26677 274.406 7.71438C275.213 8.162 275.871 8.82859 276.3 9.63377C276.362 9.74254 276.4 9.86306 276.41 9.98728C276.42 10.1115 276.404 10.2364 276.36 10.3537C276.317 10.4708 276.249 10.5776 276.16 10.6668C276.071 10.7559 275.963 10.8253 275.844 10.8703C275.729 10.9292 275.602 10.9644 275.472 10.9738C275.342 10.9832 275.212 10.9665 275.089 10.9248C274.966 10.883 274.853 10.8171 274.756 10.7311C274.66 10.6451 274.583 10.5408 274.53 10.4246C274.255 9.94962 273.847 9.5617 273.354 9.30684C272.861 9.05198 272.304 8.94089 271.748 8.98676C271.384 8.94199 271.015 8.96995 270.663 9.06895C270.311 9.16796 269.983 9.33593 269.699 9.56269C269.416 9.78945 269.182 10.0702 269.012 10.3881C268.843 10.7059 268.741 11.054 268.714 11.4114C268.714 12.8492 269.674 13.2413 272 13.7864C274.125 14.3302 277.007 15.0229 277.007 18.3874C276.978 19.5738 276.49 20.7053 275.641 21.5531C274.525 22.4729 273.107 22.9661 271.648 22.9413Z" fill="#5D503C"/>
<path d="M233.186 22.9413C233.043 22.9418 232.902 22.9104 232.773 22.8493C232.645 22.7882 232.532 22.699 232.444 22.5887C232.356 22.4783 232.295 22.3498 232.266 22.2129C232.237 22.0759 232.24 21.9344 232.276 21.7988L237.134 2.77287C237.19 2.57772 237.308 2.40503 237.47 2.27996C237.633 2.15489 237.833 2.08396 238.04 2.0775C238.183 2.07691 238.324 2.10838 238.453 2.1695C238.581 2.23063 238.694 2.31977 238.782 2.43009C238.87 2.54041 238.93 2.66897 238.96 2.80588C238.989 2.9428 238.985 3.08443 238.95 3.21989L234.096 22.2459C234.047 22.4453 233.93 22.6227 233.765 22.749C233.6 22.8753 233.396 22.9431 233.186 22.9413Z" fill="#5D503C"/>
<path d="M226.557 22.9413C226.414 22.9418 226.273 22.9104 226.144 22.8493C226.016 22.7882 225.903 22.699 225.816 22.5887C225.728 22.4783 225.667 22.3498 225.638 22.2129C225.608 22.0759 225.612 21.9344 225.647 21.7988L230.505 2.77287C230.561 2.57772 230.679 2.40503 230.842 2.27996C231.005 2.15489 231.204 2.08396 231.411 2.0775C231.554 2.07691 231.695 2.10838 231.824 2.1695C231.953 2.23063 232.065 2.31977 232.153 2.43009C232.241 2.54041 232.302 2.66897 232.331 2.80588C232.36 2.9428 232.357 3.08443 232.321 3.21989L227.467 22.2459C227.418 22.4453 227.302 22.6227 227.136 22.749C226.971 22.8753 226.767 22.9431 226.557 22.9413Z" fill="#5D503C"/>
</g>
<defs>
<clipPath id="clip0_3_184">
<rect width="143.733" height="28" fill="white" transform="translate(0.212341)"/>
</clipPath>
<clipPath id="clip1_3_184">
<rect width="117.353" height="21" fill="white" transform="translate(199.788 2)"/>
</clipPath>
</defs>
</svg>
